<mxfile host="app.diagrams.net" modified="2022-03-16T01:56:03.836Z" agent="5.0 (Windows NT 10.0; Win64; x64) AppleWebKit/537.36 (KHTML, like Gecko) Chrome/99.0.4844.51 Safari/537.36 Edg/99.0.1150.39" etag="La8IH9J_wuYp88fRCkzo" version="17.1.3" type="github">
  <diagram id="dyzcw_AZm1Z2q-wtx3s_" name="Page-1">
    <mxGraphModel dx="865" dy="456" grid="1" gridSize="10" guides="1" tooltips="1" connect="1" arrows="1" fold="1" page="1" pageScale="1" pageWidth="827" pageHeight="1169" math="0" shadow="0">
      <root>
        <mxCell id="0" />
        <mxCell id="1" parent="0" />
        <mxCell id="e2x3rvSMvW2sXb-gtNIR-1" value="数据处理" style="text;html=1;align=center;verticalAlign=middle;resizable=0;points=[];autosize=1;strokeColor=none;fillColor=none;" vertex="1" parent="1">
          <mxGeometry x="70" y="90" width="60" height="20" as="geometry" />
        </mxCell>
        <mxCell id="e2x3rvSMvW2sXb-gtNIR-2" value="可视化表达" style="text;html=1;align=center;verticalAlign=middle;resizable=0;points=[];autosize=1;strokeColor=none;fillColor=none;" vertex="1" parent="1">
          <mxGeometry x="50" y="210" width="80" height="20" as="geometry" />
        </mxCell>
        <mxCell id="e2x3rvSMvW2sXb-gtNIR-3" value="可视化交互系统设计" style="text;html=1;align=center;verticalAlign=middle;resizable=0;points=[];autosize=1;strokeColor=none;fillColor=none;" vertex="1" parent="1">
          <mxGeometry x="20" y="320" width="120" height="20" as="geometry" />
        </mxCell>
        <mxCell id="e2x3rvSMvW2sXb-gtNIR-4" value="实例验证与可视分析" style="text;html=1;align=center;verticalAlign=middle;resizable=0;points=[];autosize=1;strokeColor=none;fillColor=none;" vertex="1" parent="1">
          <mxGeometry x="30" y="410" width="120" height="20" as="geometry" />
        </mxCell>
      </root>
    </mxGraphModel>
  </diagram>
</mxfile>
